<svg width="1200" height="120" viewBox="0 0 1200 120" fill="none" xmlns="http://www.w3.org/2000/svg" role="img" aria-labelledby="title desc">
  <title id="title">Pastel light blue footer divider</title>
  <desc id="desc">A soft pastel light blue wave divider with small stars.</desc>
  <rect width="1200" height="120" rx="28" fill="#F8FCFF"/>
  <path d="M0 62C120 31 238 35 354 66C486 101 600 103 738 68C896 28 1010 31 1200 72V120H0V62Z" fill="#E3F5FF">
    <animate attributeName="d" dur="7s" repeatCount="indefinite" values="M0 62C120 31 238 35 354 66C486 101 600 103 738 68C896 28 1010 31 1200 72V120H0V62Z;M0 70C132 39 247 29 368 59C496 91 612 110 750 74C902 35 1018 40 1200 64V120H0V70Z;M0 62C120 31 238 35 354 66C486 101 600 103 738 68C896 28 1010 31 1200 72V120H0V62Z"/>
  </path>
  <path d="M0 85C132 62 244 66 370 90C510 117 630 116 780 90C928 64 1034 65 1200 92V120H0V85Z" fill="#CFEFFF">
    <animate attributeName="d" dur="8s" repeatCount="indefinite" values="M0 85C132 62 244 66 370 90C510 117 630 116 780 90C928 64 1034 65 1200 92V120H0V85Z;M0 91C138 69 260 59 388 84C522 111 644 120 792 94C936 69 1048 72 1200 86V120H0V91Z;M0 85C132 62 244 66 370 90C510 117 630 116 780 90C928 64 1034 65 1200 92V120H0V85Z"/>
  </path>
  <g>
    <animateTransform attributeName="transform" type="rotate" values="0 175 45;10 175 45;0 175 45" dur="3s" repeatCount="indefinite"/>
    <animate attributeName="opacity" values="0.65;1;0.65" dur="3s" repeatCount="indefinite"/>
    <path d="M175 26L181 38L195 40L185 50L187 64L175 57L163 64L165 50L155 40L169 38L175 26Z" fill="#FFF1B8"/>
  </g>
  <g>
    <animateTransform attributeName="transform" type="rotate" values="0 1010 44;-10 1010 44;0 1010 44" dur="3.5s" repeatCount="indefinite"/>
    <animate attributeName="opacity" values="0.72;1;0.72" dur="3.5s" repeatCount="indefinite"/>
    <path d="M1010 25L1016 37L1030 39L1020 49L1022 63L1010 56L998 63L1000 49L990 39L1004 37L1010 25Z" fill="#F8CFE8"/>
  </g>
  <text x="600" y="50" text-anchor="middle" font-family="Segoe UI, Arial, sans-serif" font-size="18" font-weight="600" fill="#6C8FA6">Designed in pastel light blue
    <animate attributeName="opacity" values="0.72;1;0.72" dur="4s" repeatCount="indefinite"/>
  </text>
</svg>
